<?xml version="1.0" encoding="UTF-8"?>
<svg id="Layer_1" data-name="Layer 1" xmlns="http://www.w3.org/2000/svg" viewBox="0 0 242.31 350">
  <defs>
    <style>
      .cls-1 {
        fill: #ff5f05;
      }

      .cls-2 {
        fill: #fff;
      }
    </style>
  </defs>
  <path class="cls-2" d="M188.46,269.23h40.38v67.31H13.46v-67.31h40.39c7.43,0,13.46-6.03,13.46-13.46V94.23c0-7.44-6.03-13.46-13.46-13.46H13.46V13.46h215.39v67.31h-40.38c-7.44,0-13.46,6.03-13.46,13.46v161.54c0,7.43,6.03,13.46,13.46,13.46h0ZM242.31,94.23V0H0v94.23h53.85v161.54H0v94.23h242.31v-94.23h-53.84V94.23h53.84Z"/>
  <path class="cls-1" d="M188.46,80.77h40.38V13.46H13.46v67.31h40.39c7.43,0,13.46,6.03,13.46,13.46v161.54c0,7.43-6.03,13.46-13.46,13.46H13.46v67.31h215.39v-67.31h-40.38c-7.44,0-13.46-6.03-13.46-13.46V94.23c0-7.44,6.03-13.46,13.46-13.46h0Z"/>
</svg>