<?xml version="1.0" encoding="UTF-8"?>
<svg id="Layer_1" xmlns="http://www.w3.org/2000/svg" xmlns:xlink="http://www.w3.org/1999/xlink" version="1.1" viewBox="0 0 37.2 20.7">
  <!-- Generator: Adobe Illustrator 29.1.0, SVG Export Plug-In . SVG Version: 2.1.0 Build 142)  -->
  <defs>
    <style>
      .st0 {
        fill: #1b1464;
      }

      .st1 {
        fill: #15256a;
      }

      .st2 {
        fill: #b7dbf1;
      }
    </style>
    <symbol id="a1" viewBox="0 0 4.4 4.4">
      <circle class="st2" cx="2.2" cy="2.2" r="2.2"/>
    </symbol>
    <symbol id="b1" viewBox="0 0 1 1">
      <circle class="st1" cx=".5" cy=".5" r=".5"/>
    </symbol>
    <symbol id="c1" viewBox="0 0 3.7 9.2">
      <polygon class="st0" points="0 0 0 9.2 3.7 9.2 3.7 0 0 0"/>
    </symbol>
  </defs>
  <path class="st0" d="M26.3,12.1c-.7-.5-1.2-.9-1.2-1.2s.3-.5,1.3-.5h2.6v-3.8h-4c-3.9,0-4.7,2.1-4.7,3.8s1.7,3.2,3,4.1c.7.5,1.3,1,1.3,1.3,0,.6-.4.7-1.7.7h-2.6s0,0,0,0l-.6-7.3c-.2-1.9-1.1-2.9-2.9-2.9s-2.6.6-3,2.2l-1.1,4.3s0,0,0,0h0s0,0,0,0l-1.1-4.3c-.2-.9-.5-1.4-.9-1.7-.4-.3-1.1-.5-2.1-.5-1.8,0-2.7.9-2.9,2.9l-.9,11.2h4.1l.5-8.2s0,0,0,0h0s0,0,0,0l1.5,6.1c.5,2,.7,2.3,1.7,2.3s1.2-.3,1.7-2.3l1.5-6.1s0,0,0,0h0s0,0,0,0l.5,8.2h8c3.1,0,5.1-1.5,5.1-3.8,0-2.1-2-3.5-3.3-4.5h0Z"/>
  <use width="4.4" height="4.4" transform="translate(0 8.3) scale(1 -1)" xlink:href="#a1"/>
  <use width="4.4" height="4.4" transform="translate(27.1 4.5) scale(.1 -.1)" xlink:href="#a1"/>
  <use width="4.4" height="4.4" transform="translate(28 2.5) scale(.1 -.1)" xlink:href="#a1"/>
  <use width="4.4" height="4.4" transform="translate(29.9 4.4) scale(.1 -.1)" xlink:href="#a1"/>
  <use width="4.4" height="4.4" transform="translate(30.8 3.5) scale(.1 -.1)" xlink:href="#a1"/>
  <use width="4.4" height="4.4" transform="translate(31.9 3.2) scale(.1 -.1)" xlink:href="#a1"/>
  <use width="4.4" height="4.4" transform="translate(33 3.5) scale(.1 -.1)" xlink:href="#a1"/>
  <use width="4.4" height="4.4" transform="translate(33.9 4.4) scale(.1 -.1)" xlink:href="#a1"/>
  <use width="4.4" height="4.4" transform="translate(34.2 5.5) scale(.1 -.1)" xlink:href="#a1"/>
  <use width="4.4" height="4.4" transform="translate(33.9 6.7) scale(.1 -.1)" xlink:href="#a1"/>
  <use width="4.4" height="4.4" transform="translate(33 7.5) scale(.1 -.1)" xlink:href="#a1"/>
  <use width="4.4" height="4.4" transform="translate(31.9 7.8) scale(.1 -.1)" xlink:href="#a1"/>
  <use width="4.4" height="4.4" transform="translate(30.8 7.5) scale(.1 -.1)" xlink:href="#a1"/>
  <use width="4.4" height="4.4" transform="translate(29.9 6.7) scale(.1 -.1)" xlink:href="#a1"/>
  <use width="4.4" height="4.4" transform="translate(29.6 5.5) scale(.1 -.1)" xlink:href="#a1"/>
  <use width="4.4" height="4.4" transform="translate(29.7 1.1) scale(.1 -.1)" xlink:href="#a1"/>
  <use width="4.4" height="4.4" transform="translate(31.8 .6) scale(.1 -.1)" xlink:href="#a1"/>
  <use width="4.4" height="4.4" transform="translate(34 1.1) scale(.1 -.1)" xlink:href="#a1"/>
  <use width="4.4" height="4.4" transform="translate(35.7 2.4) scale(.1 -.1)" xlink:href="#a1"/>
  <use width="4.4" height="4.4" transform="translate(36.7 4.4) scale(.1 -.1)" xlink:href="#a1"/>
  <use width="4.4" height="4.4" transform="translate(36.7 6.6) scale(.1 -.1)" xlink:href="#a1"/>
  <use width="4.4" height="4.4" transform="translate(35.7 8.6) scale(.1 -.1)" xlink:href="#a1"/>
  <use width="4.4" height="4.4" transform="translate(34 10) scale(.1 -.1)" xlink:href="#a1"/>
  <use width="4.4" height="4.4" transform="translate(31.9 10.5) scale(.1 -.1)" xlink:href="#a1"/>
  <use width="4.4" height="4.4" transform="translate(29.8 10.1) scale(.1 -.1)" xlink:href="#a1"/>
  <use width="3.7" height="9.2" transform="translate(.3 20.5) scale(1 -1)" xlink:href="#c1"/>
  <use width="3.7" height="9.2" transform="translate(30.3 20.4) scale(1 -1)" xlink:href="#c1"/>
  <use width="1" height="1" transform="translate(28.2 5.8) scale(1 -1)" xlink:href="#b1"/>
  <use width="1" height="1" transform="translate(28.5 4.3) scale(1 -1)" xlink:href="#b1"/>
  <use width="1" height="1" transform="translate(29.5 3) scale(1 -1)" xlink:href="#b1"/>
  <use width="1" height="1" transform="translate(30.8 2.3) scale(1 -1)" xlink:href="#b1"/>
  <use width="1" height="1" transform="translate(32.4 2.3) scale(1 -1)" xlink:href="#b1"/>
  <use width="1" height="1" transform="translate(33.8 2.9) scale(1 -1)" xlink:href="#b1"/>
  <use width="1" height="1" transform="translate(34.8 4.2) scale(1 -1)" xlink:href="#b1"/>
  <use width="1" height="1" transform="translate(35.2 5.8) scale(1 -1)" xlink:href="#b1"/>
  <use width="1" height="1" transform="translate(34.9 7.3) scale(1 -1)" xlink:href="#b1"/>
  <use width="1" height="1" transform="translate(33.9 8.6) scale(1 -1)" xlink:href="#b1"/>
  <use width="1" height="1" transform="translate(32.5 9.2) scale(1 -1)" xlink:href="#b1"/>
  <use width="1" height="1" transform="translate(30.9 9.2) scale(1 -1)" xlink:href="#b1"/>
  <use width="1" height="1" transform="translate(29.5 8.6) scale(1 -1)" xlink:href="#b1"/>
</svg>