<?xml version="1.0" encoding="UTF-8" standalone="no"?>
<!DOCTYPE svg PUBLIC "-//W3C//DTD SVG 1.1//EN" "http://www.w3.org/Graphics/SVG/1.1/DTD/svg11.dtd">
<svg xmlns="http://www.w3.org/2000/svg" xmlns:xl="http://www.w3.org/1999/xlink" xmlns:dc="http://purl.org/dc/elements/1.1/" version="1.1" viewBox="333.7 570.2875 385.19803 112.465" width="385.19803" height="112.465">
  <defs/>
  <metadata> Produced by OmniGraffle 7.18.5\n2021-07-24 00:45:54 +0000</metadata>
  <g id="Canvas_1" fill-opacity="1" stroke="none" stroke-opacity="1" stroke-dasharray="none" fill="none">
    <title>Canvas 1</title>
    <g id="Canvas_1_Layer_1">
      <title>Layer 1</title>
      <g id="Group_4">
        <g id="Graphic_9">
          <rect x="357" y="593.4241" width="35" height="66.028386" fill="#00103f"/>
          <rect x="357" y="593.4241" width="35" height="66.028386" stroke="white" stroke-linecap="square" stroke-linejoin="miter" stroke-width="1"/>
        </g>
        <g id="Line_8">
          <path d="M 357 659.4525 C 357 659.4525 363.99476 634.7543 373.91043 618.1227 C 383.8261 601.49105 392 600.7468 392 600.7468" stroke="white" stroke-linecap="square" stroke-linejoin="miter" stroke-width="1"/>
        </g>
        <g id="Line_7">
          <path d="M 357 659.4525 C 357 659.4525 365.85646 643.055 375.77213 633.0163 C 385.6878 622.9775 392 624.01806 392 624.01806" stroke="white" stroke-linecap="square" stroke-linejoin="miter" stroke-width="1"/>
        </g>
        <g id="Line_6">
          <path d="M 357 659.4525 C 357 659.4525 364.61532 649.8457 374.531 646.0482 C 384.44667 642.2507 392 646.0482 392 646.0482" stroke="white" stroke-linecap="square" stroke-linejoin="miter" stroke-width="1"/>
        </g>
        <g id="Line_5">
          <path d="M 384.5 659.4525 C 384.5 659.4525 382.94245 638.0237 375.15157 619.3638 C 367.3607 600.7039 357 593.5875 357 593.5875" stroke="white" stroke-linecap="square" stroke-linejoin="miter" stroke-width="1"/>
        </g>
      </g>
      <g id="Group_22">
        <title>PSYCHOMETRIC</title>
        <g id="Graphic_10">
          <path d="M 411.84803 610.95 C 414.34804 610.95 416.25636 610.35 417.57303 609.15 C 418.8897 607.95 419.54803 606.25 419.54803 604.05 C 419.54803 601.85 418.8897 600.14166 417.57303 598.925 C 416.25636 597.7083 414.34804 597.1 411.84803 597.1 L 403.24803 597.1 C 403.04803 597.1 402.94803 597.2 402.94803 597.4 L 402.94803 610.65 C 402.94803 610.85 403.04803 610.95 403.24803 610.95 Z M 400.59803 628.4 C 400.2647 628.4 400.09803 628.2333 400.09803 627.9 L 400.09803 594.9 C 400.09803 594.56665 400.2647 594.4 400.59803 594.4 L 411.94803 594.4 C 415.2147 594.4 417.773 595.2583 419.62303 596.975 C 421.47304 598.69166 422.39803 601.05 422.39803 604.05 C 422.39803 607.05 421.47304 609.4 419.62303 611.1 C 417.773 612.8 415.2147 613.65 411.94803 613.65 L 403.24803 613.65 C 403.04803 613.65 402.94803 613.75 402.94803 613.95 L 402.94803 627.9 C 402.94803 628.2333 402.78137 628.4 402.44803 628.4 Z" fill="white"/>
        </g>
        <g id="Graphic_11">
          <path d="M 436.14803 628.9 C 435.04803 628.9 433.94804 628.79165 432.84803 628.575 C 431.74803 628.3583 430.70637 628.06666 429.72303 627.7 C 428.7397 627.3333 427.8397 626.9083 427.02303 626.425 C 426.20636 625.94165 425.49804 625.45 424.89803 624.95 C 424.63136 624.71665 424.6147 624.4833 424.84803 624.25 L 426.04803 622.75 C 426.28137 622.4833 426.5147 622.46665 426.74803 622.7 C 427.88137 623.56666 429.2897 624.36665 430.97303 625.1 C 432.65637 625.8333 434.498 626.2 436.49803 626.2 C 439.2314 626.2 441.38136 625.56666 442.94803 624.3 C 444.5147 623.0333 445.29803 621.35 445.29803 619.25 C 445.29803 618.41665 445.1647 617.64166 444.89803 616.925 C 444.63136 616.2083 444.1897 615.56666 443.57303 615 C 442.95636 614.4333 442.12304 613.95 441.07303 613.55 C 440.02303 613.15 438.7147 612.85 437.14803 612.65 L 435.59803 612.45 C 432.2647 612.01665 429.79804 611.0333 428.19803 609.5 C 426.598 607.96665 425.79803 605.95 425.79803 603.45 C 425.79803 600.4833 426.7647 598.15 428.69803 596.45 C 430.6314 594.75 433.23135 593.9 436.49803 593.9 C 438.39804 593.9 440.198 594.1583 441.89803 594.675 C 443.59804 595.19166 445.03136 595.8833 446.19803 596.75 C 446.49803 596.91665 446.53137 597.15 446.29803 597.45 L 445.29803 599 C 445.09803 599.2333 444.8647 599.26665 444.59803 599.1 C 443.23136 598.26665 441.88137 597.64166 440.54803 597.225 C 439.2147 596.8083 437.8147 596.6 436.34803 596.6 C 433.9147 596.6 432.02304 597.2083 430.67303 598.425 C 429.323 599.64166 428.64803 601.25 428.64803 603.25 C 428.64803 604.9833 429.25636 606.4 430.47303 607.5 C 431.6897 608.6 433.748 609.3333 436.64803 609.7 L 438.19803 609.9 C 441.6647 610.36666 444.1897 611.375 445.77303 612.925 C 447.35637 614.475 448.14803 616.51664 448.14803 619.05 C 448.14803 620.4833 447.8897 621.8 447.37303 623 C 446.85636 624.2 446.09804 625.24165 445.09803 626.125 C 444.09803 627.0083 442.84804 627.69165 441.34803 628.175 C 439.848 628.6583 438.1147 628.9 436.14803 628.9 Z" fill="white"/>
        </g>
        <g id="Graphic_12">
          <path d="M 459.49803 628.4 C 459.1647 628.4 458.99803 628.2333 458.99803 627.9 L 458.99803 614.45 L 448.79803 594.95 C 448.73137 594.81665 448.7397 594.69165 448.82303 594.575 C 448.90637 594.4583 449.03136 594.4 449.19803 594.4 L 451.14803 594.4 C 451.48137 594.4 451.73136 594.56665 451.89803 594.9 L 460.44803 611.15 L 460.59803 611.15 L 468.99803 594.9 C 469.1647 594.56665 469.4147 594.4 469.74803 594.4 L 471.64803 594.4 C 471.84803 594.4 471.98137 594.4583 472.04803 594.575 C 472.1147 594.69165 472.1147 594.81665 472.04803 594.95 L 461.84803 614.45 L 461.84803 627.9 C 461.84803 628.2333 461.68137 628.4 461.34803 628.4 Z" fill="white"/>
        </g>
        <g id="Graphic_13">
          <path d="M 473.69803 621.3 C 473.5647 620.86665 473.4397 620.39166 473.32303 619.875 C 473.20636 619.3583 473.1147 618.71666 473.04803 617.95 C 472.98137 617.1833 472.92303 616.275 472.87303 615.225 C 472.82303 614.175 472.79803 612.9 472.79803 611.4 C 472.79803 609.9 472.82303 608.625 472.87303 607.575 C 472.92303 606.525 472.98137 605.61666 473.04803 604.85 C 473.1147 604.0833 473.20636 603.44166 473.32303 602.925 C 473.4397 602.4083 473.5647 601.9333 473.69803 601.5 C 474.5647 598.9333 475.898 597.025 477.69803 595.775 C 479.49804 594.525 481.748 593.9 484.44803 593.9 C 486.7814 593.9 488.83136 594.425 490.59803 595.475 C 492.3647 596.525 493.73136 598.1 494.69803 600.2 C 494.83137 600.5 494.78137 600.71665 494.54803 600.85 L 492.89803 601.65 C 492.63136 601.81665 492.4147 601.75 492.24803 601.45 C 491.48136 599.9833 490.47304 598.8083 489.22303 597.925 C 487.973 597.04165 486.3814 596.6 484.44803 596.6 C 482.348 596.6 480.6564 597.075 479.37303 598.025 C 478.0897 598.975 477.1147 600.3833 476.44803 602.25 C 476.34803 602.5833 476.24803 602.9833 476.14803 603.45 C 476.04803 603.91666 475.9647 604.5 475.89803 605.2 C 475.83137 605.9 475.78137 606.75 475.74803 607.75 C 475.7147 608.75 475.69803 609.96665 475.69803 611.4 C 475.69803 612.8333 475.7147 614.05 475.74803 615.05 C 475.78137 616.05 475.83137 616.9 475.89803 617.6 C 475.9647 618.3 476.04803 618.8833 476.14803 619.35 C 476.24803 619.81666 476.34803 620.21665 476.44803 620.55 C 477.1147 622.4167 478.0897 623.825 479.37303 624.775 C 480.6564 625.725 482.348 626.2 484.44803 626.2 C 486.3814 626.2 487.973 625.7583 489.22303 624.875 C 490.47304 623.99165 491.48136 622.81666 492.24803 621.35 C 492.4147 621.05 492.63136 620.9833 492.89803 621.15 L 494.54803 621.95 C 494.78137 622.0833 494.83137 622.3 494.69803 622.6 C 493.73136 624.7 492.3647 626.275 490.59803 627.325 C 488.83136 628.375 486.7814 628.9 484.44803 628.9 C 481.748 628.9 479.49804 628.275 477.69803 627.025 C 475.898 625.775 474.5647 623.8667 473.69803 621.3 Z" fill="white"/>
        </g>
        <g id="Graphic_14">
          <path d="M 499.04803 594.9 C 499.04803 594.56665 499.2147 594.4 499.54803 594.4 L 501.39803 594.4 C 501.73137 594.4 501.89803 594.56665 501.89803 594.9 L 501.89803 609.5 C 501.89803 609.7 501.99803 609.8 502.19803 609.8 L 518.99803 609.8 C 519.19803 609.8 519.29803 609.7 519.29803 609.5 L 519.29803 594.9 C 519.29803 594.56665 519.4647 594.4 519.79803 594.4 L 521.64803 594.4 C 521.98137 594.4 522.14803 594.56665 522.14803 594.9 L 522.14803 627.9 C 522.14803 628.2333 521.98137 628.4 521.64803 628.4 L 519.79803 628.4 C 519.4647 628.4 519.29803 628.2333 519.29803 627.9 L 519.29803 612.8 C 519.29803 612.6 519.19803 612.5 518.99803 612.5 L 502.19803 612.5 C 501.99803 612.5 501.89803 612.6 501.89803 612.8 L 501.89803 627.9 C 501.89803 628.2333 501.73137 628.4 501.39803 628.4 L 499.54803 628.4 C 499.2147 628.4 499.04803 628.2333 499.04803 627.9 Z" fill="white"/>
        </g>
        <g id="Graphic_15">
          <path d="M 548.148 611.4 C 548.148 610.0333 548.123 608.85 548.073 607.85 C 548.023 606.85 547.9647 606 547.898 605.3 C 547.83137 604.6 547.7397 604.01666 547.623 603.55 C 547.50636 603.0833 547.398 602.6833 547.298 602.35 C 546.03136 598.5166 543.29805 596.6 539.098 596.6 C 534.8647 596.6 532.1147 598.5166 530.84803 602.35 C 530.748 602.6833 530.6397 603.0833 530.52303 603.55 C 530.40636 604.01666 530.3147 604.6 530.24803 605.3 C 530.18137 606 530.12303 606.85 530.07303 607.85 C 530.02303 608.85 529.99803 610.0333 529.99803 611.4 C 529.99803 612.76666 530.02303 613.95 530.07303 614.95 C 530.12303 615.95 530.18137 616.8 530.24803 617.5 C 530.3147 618.2 530.40636 618.7833 530.52303 619.25 C 530.6397 619.71666 530.748 620.11665 530.84803 620.45 C 532.1147 624.28334 534.8647 626.2 539.098 626.2 C 543.29805 626.2 546.03136 624.28334 547.298 620.45 C 547.398 620.11665 547.50636 619.71666 547.623 619.25 C 547.7397 618.7833 547.83137 618.2 547.898 617.5 C 547.9647 616.8 548.023 615.95 548.073 614.95 C 548.123 613.95 548.148 612.76666 548.148 611.4 Z M 539.098 628.9 C 536.298 628.9 533.97304 628.25 532.12303 626.95 C 530.273 625.65 528.9314 623.75 528.09803 621.25 C 527.93136 620.81665 527.7897 620.325 527.67303 619.775 C 527.55636 619.225 527.45637 618.575 527.37303 617.825 C 527.2897 617.075 527.22303 616.1833 527.17303 615.15 C 527.12303 614.11665 527.09803 612.86666 527.09803 611.4 C 527.09803 609.9333 527.12303 608.6833 527.17303 607.65 C 527.22303 606.61665 527.2897 605.725 527.37303 604.975 C 527.45637 604.225 527.55636 603.5833 527.67303 603.05 C 527.7897 602.51665 527.93136 602.01666 528.09803 601.55 C 528.9314 599.05 530.273 597.15 532.12303 595.85 C 533.97304 594.55 536.298 593.9 539.098 593.9 C 541.8647 593.9 544.173 594.55 546.023 595.85 C 547.87304 597.15 549.2147 599.05 550.048 601.55 C 550.18137 602.01666 550.3147 602.51665 550.448 603.05 C 550.58137 603.5833 550.6897 604.225 550.773 604.975 C 550.85637 605.725 550.923 606.61665 550.973 607.65 C 551.023 608.6833 551.048 609.9333 551.048 611.4 C 551.048 612.86666 551.023 614.11665 550.973 615.15 C 550.923 616.1833 550.85637 617.075 550.773 617.825 C 550.6897 618.575 550.58137 619.225 550.448 619.775 C 550.3147 620.325 550.18137 620.81665 550.048 621.25 C 549.2147 623.75 547.87304 625.65 546.023 626.95 C 544.173 628.25 541.8647 628.9 539.098 628.9 Z" fill="white"/>
        </g>
        <g id="Graphic_16">
          <path d="M 555.998 594.9 C 555.998 594.56665 556.1647 594.4 556.498 594.4 L 558.398 594.4 C 558.7647 594.4 559.0147 594.56665 559.148 594.9 L 570.198 619.25 L 570.398 619.25 L 581.198 594.9 C 581.3314 594.56665 581.5647 594.4 581.898 594.4 L 583.848 594.4 C 584.1814 594.4 584.348 594.56665 584.348 594.9 L 584.348 627.9 C 584.348 628.2333 584.1814 628.4 583.848 628.4 L 581.998 628.4 C 581.6647 628.4 581.498 628.2333 581.498 627.9 L 581.498 601.3 L 581.348 601.3 L 571.548 622.85 C 571.448 623.05 571.3397 623.19165 571.223 623.275 C 571.10636 623.3583 570.9147 623.4 570.648 623.4 L 569.648 623.4 C 569.248 623.4 568.9647 623.21666 568.798 622.85 L 558.998 601.3 L 558.848 601.3 L 558.848 627.9 C 558.848 628.2333 558.6814 628.4 558.348 628.4 L 556.498 628.4 C 556.1647 628.4 555.998 628.2333 555.998 627.9 Z" fill="white"/>
        </g>
        <g id="Graphic_17">
          <path d="M 590.748 594.9 C 590.748 594.56665 590.9147 594.4 591.248 594.4 L 610.698 594.4 C 611.0314 594.4 611.198 594.56665 611.198 594.9 L 611.198 596.6 C 611.198 596.9333 611.0314 597.1 610.698 597.1 L 593.898 597.1 C 593.698 597.1 593.598 597.2 593.598 597.4 L 593.598 609.5 C 593.598 609.7 593.698 609.8 593.898 609.8 L 608.348 609.8 C 608.6814 609.8 608.848 609.96665 608.848 610.3 L 608.848 612 C 608.848 612.3333 608.6814 612.5 608.348 612.5 L 593.898 612.5 C 593.698 612.5 593.598 612.6 593.598 612.8 L 593.598 625.4 C 593.598 625.6 593.698 625.7 593.898 625.7 L 610.698 625.7 C 611.0314 625.7 611.198 625.86665 611.198 626.2 L 611.198 627.9 C 611.198 628.2333 611.0314 628.4 610.698 628.4 L 591.248 628.4 C 590.9147 628.4 590.748 628.2333 590.748 627.9 Z" fill="white"/>
        </g>
        <g id="Graphic_18">
          <path d="M 624.048 628.4 C 623.7147 628.4 623.548 628.2333 623.548 627.9 L 623.548 597.4 C 623.548 597.2 623.448 597.1 623.248 597.1 L 613.448 597.1 C 613.1147 597.1 612.948 596.9333 612.948 596.6 L 612.948 594.9 C 612.948 594.56665 613.1147 594.4 613.448 594.4 L 636.498 594.4 C 636.8314 594.4 636.998 594.56665 636.998 594.9 L 636.998 596.6 C 636.998 596.9333 636.8314 597.1 636.498 597.1 L 626.698 597.1 C 626.498 597.1 626.398 597.2 626.398 597.4 L 626.398 627.9 C 626.398 628.2333 626.2314 628.4 625.898 628.4 Z" fill="white"/>
        </g>
        <g id="Graphic_19">
          <path d="M 650.648 610.5 C 653.0814 610.5 654.948 609.925 656.248 608.775 C 657.548 607.625 658.198 605.9667 658.198 603.8 C 658.198 601.66664 657.548 600.01666 656.248 598.85 C 654.948 597.6833 653.0814 597.1 650.648 597.1 L 641.948 597.1 C 641.748 597.1 641.648 597.2 641.648 597.4 L 641.648 610.2 C 641.648 610.4 641.748 610.5 641.948 610.5 Z M 658.948 628.4 C 658.6814 628.4 658.4814 628.25 658.348 627.95 L 651.198 613.2 L 650.698 613.2 L 641.948 613.2 C 641.748 613.2 641.648 613.3 641.648 613.5 L 641.648 627.9 C 641.648 628.2333 641.4814 628.4 641.148 628.4 L 639.298 628.4 C 638.9647 628.4 638.798 628.2333 638.798 627.9 L 638.798 594.9 C 638.798 594.56665 638.9647 594.4 639.298 594.4 L 650.698 594.4 C 653.9314 594.4 656.4647 595.2333 658.298 596.9 C 660.1314 598.56666 661.048 600.86664 661.048 603.8 C 661.048 606.1667 660.4397 608.125 659.223 609.675 C 658.00636 611.225 656.29804 612.26665 654.098 612.8 L 661.498 627.85 C 661.598 628.01665 661.623 628.15 661.573 628.25 C 661.523 628.35 661.4147 628.4 661.248 628.4 Z" fill="white"/>
        </g>
        <g id="Graphic_20">
          <path d="M 666.548 594.9 C 666.548 594.56665 666.7147 594.4 667.048 594.4 L 668.898 594.4 C 669.2314 594.4 669.398 594.56665 669.398 594.9 L 669.398 627.9 C 669.398 628.2333 669.2314 628.4 668.898 628.4 L 667.048 628.4 C 666.7147 628.4 666.548 628.2333 666.548 627.9 Z" fill="white"/>
        </g>
        <g id="Graphic_21">
          <path d="M 675.248 621.3 C 675.1147 620.86665 674.9897 620.39166 674.873 619.875 C 674.7564 619.3583 674.6647 618.71666 674.598 617.95 C 674.5314 617.1833 674.473 616.275 674.423 615.225 C 674.373 614.175 674.348 612.9 674.348 611.4 C 674.348 609.9 674.373 608.625 674.423 607.575 C 674.473 606.525 674.5314 605.61666 674.598 604.85 C 674.6647 604.0833 674.7564 603.44166 674.873 602.925 C 674.9897 602.4083 675.1147 601.9333 675.248 601.5 C 676.1147 598.9333 677.448 597.025 679.248 595.775 C 681.04804 594.525 683.298 593.9 685.998 593.9 C 688.3314 593.9 690.38136 594.425 692.148 595.475 C 693.9147 596.525 695.2814 598.1 696.248 600.2 C 696.3814 600.5 696.3314 600.71665 696.098 600.85 L 694.448 601.65 C 694.1814 601.81665 693.9647 601.75 693.798 601.45 C 693.0314 599.9833 692.023 598.8083 690.773 597.925 C 689.523 597.04165 687.9314 596.6 685.998 596.6 C 683.898 596.6 682.2064 597.075 680.923 598.025 C 679.6397 598.975 678.6647 600.3833 677.998 602.25 C 677.898 602.5833 677.798 602.9833 677.698 603.45 C 677.598 603.91666 677.5147 604.5 677.448 605.2 C 677.3814 605.9 677.3314 606.75 677.298 607.75 C 677.2647 608.75 677.248 609.96665 677.248 611.4 C 677.248 612.8333 677.2647 614.05 677.298 615.05 C 677.3314 616.05 677.3814 616.9 677.448 617.6 C 677.5147 618.3 677.598 618.8833 677.698 619.35 C 677.798 619.81666 677.898 620.21665 677.998 620.55 C 678.6647 622.4167 679.6397 623.825 680.923 624.775 C 682.2064 625.725 683.898 626.2 685.998 626.2 C 687.9314 626.2 689.523 625.7583 690.773 624.875 C 692.023 623.99165 693.0314 622.81666 693.798 621.35 C 693.9647 621.05 694.1814 620.9833 694.448 621.15 L 696.098 621.95 C 696.3314 622.0833 696.3814 622.3 696.248 622.6 C 695.2814 624.7 693.9147 626.275 692.148 627.325 C 690.38136 628.375 688.3314 628.9 685.998 628.9 C 683.298 628.9 681.04804 628.275 679.248 627.025 C 677.448 625.775 676.1147 623.8667 675.248 621.3 Z" fill="white"/>
        </g>
      </g>
      <g id="Group_30">
        <title>SOCIETY</title>
        <g id="Graphic_23">
          <path d="M 406.33803 658.26 C 405.54603 658.26 404.75403 658.182 403.96203 658.026 C 403.17003 657.87 402.42003 657.66 401.71203 657.396 C 401.00403 657.132 400.35603 656.826 399.76803 656.478 C 399.18003 656.13 398.67003 655.776 398.23803 655.416 C 398.04603 655.248 398.03403 655.08 398.20203 654.912 L 399.06603 653.832 C 399.23403 653.64 399.40203 653.628 399.57003 653.796 C 400.38603 654.42 401.40002 654.996 402.61203 655.524 C 403.82404 656.052 405.15 656.316 406.59003 656.316 C 408.55804 656.316 410.10602 655.86 411.23403 654.948 C 412.36204 654.036 412.92603 652.824 412.92603 651.312 C 412.92603 650.712 412.83003 650.154 412.63803 649.638 C 412.44603 649.122 412.12803 648.66 411.68403 648.252 C 411.24003 647.844 410.64003 647.496 409.88403 647.208 C 409.12803 646.92 408.18604 646.704 407.05803 646.56 L 405.94203 646.416 C 403.542 646.104 401.76604 645.396 400.61403 644.292 C 399.46202 643.188 398.88603 641.736 398.88603 639.936 C 398.88603 637.8 399.582 636.12 400.97403 634.896 C 402.36604 633.672 404.238 633.06 406.59003 633.06 C 407.95804 633.06 409.25402 633.246 410.47803 633.618 C 411.70204 633.99 412.73403 634.488 413.57403 635.112 C 413.79003 635.232 413.81403 635.4 413.64603 635.616 L 412.92603 636.732 C 412.78203 636.9 412.61403 636.924 412.42203 636.804 C 411.43803 636.204 410.46604 635.754 409.50603 635.454 C 408.54603 635.154 407.53804 635.004 406.48203 635.004 C 404.73 635.004 403.36804 635.442 402.39603 636.318 C 401.42403 637.194 400.93803 638.352 400.93803 639.792 C 400.93803 641.04 401.37603 642.06 402.25203 642.852 C 403.12803 643.644 404.61 644.172 406.69803 644.436 L 407.81403 644.58 C 410.31004 644.916 412.12802 645.642 413.26803 646.758 C 414.40804 647.874 414.97803 649.344 414.97803 651.168 C 414.97803 652.2 414.79203 653.148 414.42003 654.012 C 414.04803 654.876 413.50203 655.626 412.78203 656.262 C 412.06203 656.898 411.16204 657.39 410.08203 657.738 C 409.00203 658.086 407.75404 658.26 406.33803 658.26 Z" fill="white"/>
        </g>
        <g id="Graphic_24">
          <path d="M 434.85003 645.66 C 434.85003 644.676 434.83203 643.824 434.79603 643.104 C 434.76003 642.384 434.71803 641.772 434.67003 641.268 C 434.62203 640.764 434.55603 640.344 434.47203 640.008 C 434.38803 639.672 434.31003 639.384 434.23803 639.144 C 433.32603 636.384 431.35805 635.004 428.33403 635.004 C 425.286 635.004 423.30604 636.384 422.39403 639.144 C 422.32203 639.384 422.24403 639.672 422.16003 640.008 C 422.07603 640.344 422.01003 640.764 421.96203 641.268 C 421.91403 641.772 421.87203 642.384 421.83603 643.104 C 421.80003 643.824 421.78203 644.676 421.78203 645.66 C 421.78203 646.644 421.80003 647.496 421.83603 648.216 C 421.87203 648.936 421.91403 649.548 421.96203 650.052 C 422.01003 650.556 422.07603 650.976 422.16003 651.312 C 422.24403 651.648 422.32203 651.936 422.39403 652.176 C 423.30604 654.936 425.286 656.316 428.33403 656.316 C 431.35805 656.316 433.32603 654.936 434.23803 652.176 C 434.31003 651.936 434.38803 651.648 434.47203 651.312 C 434.55603 650.976 434.62203 650.556 434.67003 650.052 C 434.71803 649.548 434.76003 648.936 434.79603 648.216 C 434.83203 647.496 434.85003 646.644 434.85003 645.66 Z M 428.33403 658.26 C 426.318 658.26 424.64404 657.792 423.31203 656.856 C 421.98 655.92 421.01403 654.552 420.41403 652.752 C 420.29403 652.44 420.19203 652.086 420.10803 651.69 C 420.02403 651.294 419.95203 650.826 419.89203 650.286 C 419.83203 649.746 419.78403 649.104 419.74803 648.36 C 419.71203 647.616 419.69403 646.716 419.69403 645.66 C 419.69403 644.604 419.71203 643.704 419.74803 642.96 C 419.78403 642.216 419.83203 641.574 419.89203 641.034 C 419.95203 640.494 420.02403 640.032 420.10803 639.648 C 420.19203 639.264 420.29403 638.904 420.41403 638.568 C 421.01403 636.768 421.98 635.4 423.31203 634.464 C 424.64404 633.528 426.318 633.06 428.33403 633.06 C 430.32604 633.06 431.988 633.528 433.32003 634.464 C 434.65204 635.4 435.61803 636.768 436.21803 638.568 C 436.31403 638.904 436.41003 639.264 436.50603 639.648 C 436.60203 640.032 436.68003 640.494 436.74003 641.034 C 436.80003 641.574 436.84803 642.216 436.88403 642.96 C 436.92003 643.704 436.93803 644.604 436.93803 645.66 C 436.93803 646.716 436.92003 647.616 436.88403 648.36 C 436.84803 649.104 436.80003 649.746 436.74003 650.286 C 436.68003 650.826 436.60203 651.294 436.50603 651.69 C 436.41003 652.086 436.31403 652.44 436.21803 652.752 C 435.61803 654.552 434.65204 655.92 433.32003 656.856 C 431.988 657.792 430.32604 658.26 428.33403 658.26 Z" fill="white"/>
        </g>
        <g id="Graphic_25">
          <path d="M 442.26603 652.788 C 442.17003 652.476 442.08003 652.134 441.99603 651.762 C 441.91203 651.39 441.84603 650.928 441.79803 650.376 C 441.75003 649.824 441.70803 649.17 441.67203 648.414 C 441.63603 647.658 441.61803 646.74 441.61803 645.66 C 441.61803 644.58 441.63603 643.662 441.67203 642.906 C 441.70803 642.15 441.75003 641.496 441.79803 640.944 C 441.84603 640.392 441.91203 639.93 441.99603 639.558 C 442.08003 639.186 442.17003 638.844 442.26603 638.532 C 442.89003 636.684 443.85 635.31 445.14603 634.41 C 446.44204 633.51 448.062 633.06 450.00603 633.06 C 451.68604 633.06 453.162 633.438 454.43403 634.194 C 455.70604 634.95 456.69 636.084 457.38603 637.596 C 457.48203 637.812 457.44603 637.968 457.27803 638.064 L 456.09003 638.64 C 455.89803 638.76 455.74203 638.712 455.62203 638.496 C 455.07003 637.44 454.34404 636.594 453.44403 635.958 C 452.544 635.322 451.39804 635.004 450.00603 635.004 C 448.494 635.004 447.27604 635.346 446.35203 636.03 C 445.428 636.714 444.72603 637.728 444.24603 639.072 C 444.17403 639.312 444.10203 639.6 444.03003 639.936 C 443.95803 640.272 443.89803 640.692 443.85003 641.196 C 443.80203 641.7 443.76603 642.312 443.74203 643.032 C 443.71803 643.752 443.70603 644.628 443.70603 645.66 C 443.70603 646.692 443.71803 647.568 443.74203 648.288 C 443.76603 649.008 443.80203 649.62 443.85003 650.124 C 443.89803 650.628 443.95803 651.048 444.03003 651.384 C 444.10203 651.72 444.17403 652.008 444.24603 652.248 C 444.72603 653.592 445.428 654.606 446.35203 655.29 C 447.27604 655.974 448.494 656.316 450.00603 656.316 C 451.39804 656.316 452.544 655.998 453.44403 655.362 C 454.34404 654.726 455.07003 653.88 455.62203 652.824 C 455.74203 652.608 455.89803 652.56 456.09003 652.68 L 457.27803 653.256 C 457.44603 653.352 457.48203 653.508 457.38603 653.724 C 456.69 655.236 455.70604 656.37 454.43403 657.126 C 453.162 657.882 451.68604 658.26 450.00603 658.26 C 448.062 658.26 446.44204 657.81 445.14603 656.91 C 443.85 656.01 442.89003 654.636 442.26603 652.788 Z" fill="white"/>
        </g>
        <g id="Graphic_26">
          <path d="M 462.67803 633.78 C 462.67803 633.54 462.79803 633.42 463.03803 633.42 L 464.37003 633.42 C 464.61003 633.42 464.73003 633.54 464.73003 633.78 L 464.73003 657.54 C 464.73003 657.78 464.61003 657.9 464.37003 657.9 L 463.03803 657.9 C 462.79803 657.9 462.67803 657.78 462.67803 657.54 Z" fill="white"/>
        </g>
        <g id="Graphic_27">
          <path d="M 471.49803 633.78 C 471.49803 633.54 471.61803 633.42 471.85803 633.42 L 485.86203 633.42 C 486.10203 633.42 486.22203 633.54 486.22203 633.78 L 486.22203 635.004 C 486.22203 635.244 486.10203 635.364 485.86203 635.364 L 473.76603 635.364 C 473.62203 635.364 473.55003 635.436 473.55003 635.58 L 473.55003 644.292 C 473.55003 644.436 473.62203 644.508 473.76603 644.508 L 484.17003 644.508 C 484.41003 644.508 484.53003 644.628 484.53003 644.868 L 484.53003 646.092 C 484.53003 646.332 484.41003 646.452 484.17003 646.452 L 473.76603 646.452 C 473.62203 646.452 473.55003 646.524 473.55003 646.668 L 473.55003 655.74 C 473.55003 655.884 473.62203 655.956 473.76603 655.956 L 485.86203 655.956 C 486.10203 655.956 486.22203 656.076 486.22203 656.316 L 486.22203 657.54 C 486.22203 657.78 486.10203 657.9 485.86203 657.9 L 471.85803 657.9 C 471.61803 657.9 471.49803 657.78 471.49803 657.54 Z" fill="white"/>
        </g>
        <g id="Graphic_28">
          <path d="M 496.91403 657.9 C 496.674 657.9 496.55403 657.78 496.55403 657.54 L 496.55403 635.58 C 496.55403 635.436 496.48203 635.364 496.33803 635.364 L 489.28203 635.364 C 489.04203 635.364 488.92203 635.244 488.92203 635.004 L 488.92203 633.78 C 488.92203 633.54 489.04203 633.42 489.28203 633.42 L 505.87803 633.42 C 506.11803 633.42 506.23803 633.54 506.23803 633.78 L 506.23803 635.004 C 506.23803 635.244 506.11803 635.364 505.87803 635.364 L 498.82203 635.364 C 498.67803 635.364 498.60603 635.436 498.60603 635.58 L 498.60603 657.54 C 498.60603 657.78 498.48603 657.9 498.24603 657.9 Z" fill="white"/>
        </g>
        <g id="Graphic_29">
          <path d="M 515.634 657.9 C 515.394 657.9 515.274 657.78 515.274 657.54 L 515.274 647.856 L 507.93003 633.816 C 507.88203 633.72 507.888 633.63 507.94803 633.546 C 508.00803 633.462 508.098 633.42 508.21803 633.42 L 509.62203 633.42 C 509.86203 633.42 510.042 633.54 510.16203 633.78 L 516.318 645.48 L 516.426 645.48 L 522.474 633.78 C 522.59403 633.54 522.774 633.42 523.014 633.42 L 524.382 633.42 C 524.52603 633.42 524.622 633.462 524.67 633.546 C 524.718 633.63 524.718 633.72 524.67 633.816 L 517.326 647.856 L 517.326 657.54 C 517.326 657.78 517.20603 657.9 516.966 657.9 Z" fill="white"/>
        </g>
      </g>
    </g>
  </g>
</svg>
