<svg xmlns="http://www.w3.org/2000/svg" viewBox="0 0 700 700">
  <!-- Background rectangle -->
  <rect width="700" height="700" fill="#FFFFFF"/>

  <!-- Letter P -->
  <g transform="translate(0,700) scale(0.1,-0.1)" fill="#010E36">
	<path d="M0 3500 l0 -3500 3500 0 3500 0 0 3500 0 3500 -3500 0 -3500 0 0
	-3500z m3755 1627 c294 -50 537 -170 669 -332 105 -128 177 -292 212 -485 25
	-134 25 -458 0 -590 -69 -374 -259 -626 -570 -757 -190 -81 -327 -104 -643
	-110 l-253 -5 0 -644 0 -644 -415 0 -415 0 0 1796 0 1795 658 -4 c555 -3 672
	-6 757 -20z"/>
	<path d="M3170 3991 l0 -441 158 0 c173 0 245 13 310 54 116 73 170 220 159
	435 -9 186 -63 290 -182 351 l-68 35 -188 4 -189 3 0 -441z"/>
  </g>
</svg>
