<svg xmlns="http://www.w3.org/2000/svg" xmlns:xlink="http://www.w3.org/1999/xlink" width="737.23" height="581.93" viewBox="0 0 737.23 581.93"><defs><style>.a{fill:none;}.b{clip-path:url(#a);}.c{fill:#fff;}</style><clipPath id="a" transform="translate(0 0)"><rect class="a" width="737.23" height="581.93"/></clipPath></defs><g class="b"><polygon class="c" points="336.37 388.38 336.37 142.82 285.64 193.55 285.64 439.11 336.37 388.38"/><polygon class="c" points="0 193.55 0 439.11 50.73 388.38 50.73 142.82 0 193.55"/><polygon class="c" points="122.14 202.91 122.14 71.41 71.41 122.14 71.41 253.64 122.14 202.91"/><polygon class="c" points="142.82 50.73 142.82 182.23 193.55 131.5 193.55 0 142.82 50.73"/><polygon class="c" points="264.96 202.91 264.96 71.41 214.23 122.14 214.23 253.64 264.96 202.91"/><polygon class="c" points="193.55 388.38 193.55 388.38 142.82 439.11 193.55 388.38"/><polygon class="c" points="142.82 444.77 142.82 581.93 193.55 531.2 193.55 394.04 142.82 444.77"/><polygon class="c" points="264.96 316.97 264.96 316.97 214.23 367.7 264.96 316.97"/><polygon class="c" points="214.23 373.36 214.23 510.52 264.96 459.79 264.96 322.63 214.23 373.36"/><polygon class="c" points="71.41 373.36 71.41 510.52 122.14 459.79 122.14 322.63 71.41 373.36"/><polygon class="c" points="142.82 301.95 142.82 325.05 193.55 274.32 193.55 251.22 142.82 301.95"/><polygon class="c" points="264.96 214.23 214.23 264.96 214.23 367.7 264.96 316.97 264.96 214.23"/><polygon class="c" points="193.55 285.64 142.82 336.37 142.82 439.11 193.55 388.38 193.55 285.64"/><polygon class="c" points="142.82 193.55 142.82 296.29 193.55 245.56 193.55 142.82 142.82 193.55"/><polygon class="c" points="71.41 264.96 71.41 367.7 122.14 316.97 122.14 214.23 71.41 264.96"/><polygon class="c" points="398.04 388.38 398.04 363.54 520.83 166.28 402.87 166.28 402.87 142.82 550.48 142.82 550.48 164.9 426.67 364.93 550.48 364.93 550.48 388.38 398.04 388.38"/><g class="b"><path class="c" d="M736.42,336.29c-5.23,34.37-37.27,56-82.15,56-36.94,0-61.12-9.32-84.24-32.45l18-18c20.37,20.37,39.35,26.94,67,26.94,28.41,0,48.31-11.36,54.17-31a35.15,35.15,0,0,0,1.37-8,45,45,0,0,0-2.87-19.27c-1.79-5-7.41-11.63-11.75-14.59-9.56-7-23.24-12.9-37.3-17.68l-27.44-9.4c-18.5-6.43-32.32-15.24-41.3-26.23-10.57-12.94-14.16-31.79-11.07-50.8,0-.13.22-1.3.22-1.3,7.68-32.58,34.44-51.69,76.49-51.69,31.42,0,48.84,9.45,69.9,28.44l-16.92,16.92c-15.19-13.81-28.12-22.57-54-22.57-30.61,0-47.52,16.23-50.87,37.93-1.29,12,2,21,8.18,28.61,6.33,7.79,17.43,14,29.65,18.31l25.8,8.76c18.74,6.27,39.32,16.15,50.79,26.45,0,0,23.91,18.52,18.43,54.56" transform="translate(0 0)"/></g></g></svg>