<?xml version="1.0" encoding="UTF-8"?><svg id="Layer_1" xmlns="http://www.w3.org/2000/svg" viewBox="0 0 164.6 131.4"><defs><style>.cls-1{fill:#fff;}.cls-2{fill:#231f20;}</style></defs><g><path class="cls-2" d="M156.8,127.4c0-1.8,2.1-2.1,3.5-2.1h1.3c0,.9-.1,1.8-.7,2.5-.5,.6-1.2,1.1-2.2,1.1-1,0-1.9-.5-1.9-1.5m-1.6-5.2c1-.8,2.4-1.3,3.7-1.3,1.8,0,2.7,.7,2.7,2.6h-1.7c-1.3,0-2.8,.1-4,.7s-2,1.6-2,3.4c0,2.3,2.1,3.5,4.2,3.5,1.4,0,3-.7,3.7-2.1h0c0,.4,0,1.2,.1,1.8h2.7c-.1-.9-.1-1.8-.1-2.7v-4.5c0-3.5-1.5-5-5.2-5-1.3,0-2.9,.3-4.2,.9l.1,2.7Zm-6.9-5.5h3.1v-3h-3.1v3Zm0,14.1h3.1v-11.9h-3.1v11.9Zm-6.3,0h3.1v-17.4h-3.1v17.4Zm-10.6-3.4c0-1.8,2.1-2.1,3.5-2.1h1.3c0,.9-.1,1.8-.6,2.5-.5,.6-1.2,1.1-2.2,1.1-1.2,0-2-.5-2-1.5m-1.6-5.2c1-.8,2.4-1.3,3.7-1.3,1.8,0,2.7,.7,2.7,2.6h-1.7c-1.3,0-2.8,.1-4,.7s-2,1.6-2,3.4c0,2.3,2.1,3.5,4.2,3.5,1.4,0,3-.7,3.7-2.1h0c0,.4,0,1.2,.1,1.8h2.7c-.1-.9-.1-1.8-.1-2.7v-4.5c0-3.5-1.5-5-5.1-5-1.3,0-2.9,.3-4.2,.9v2.7Zm-9.5,8.6h3.1v-4.4c0-1.7,0-4.9,2.5-4.9,.6,0,1.1,.1,1.4,.3v-3.1c-.3-.1-.7-.1-1-.1-1.9,0-3.1,1.9-3.3,3h0v-2.7h-2.8v11.9h.1Zm-7.9-3.5c0,2.4,1.3,3.9,3.8,3.9,.9,0,1.6-.1,2.3-.3l-.1-2.5c-.3,.2-.9,.3-1.4,.3-1.2,0-1.5-1-1.5-2v-5.6h2.8v-2.3h-2.8v-3.4l-3.1,1v2.4h-2.3v2.3h2.3s0,6.2,0,6.2Zm-3.9-8.2c-1-.2-1.9-.4-3.4-.4-2.4,0-4.7,1.1-4.7,3.7,0,4.3,5.4,2.7,5.4,5.1,0,1.2-1.3,1.5-2,1.5-1.1,0-2.1-.3-3.1-.8l-.2,2.6c1.1,.3,2.3,.5,3.5,.5,2.5,0,5-1.1,5-3.9,0-4.3-5.4-3.1-5.4-5,0-1,1-1.3,1.8-1.3,1.1,0,1.8,.2,2.8,.5l.3-2.5Zm-10.4-.2h-3.1v5.8c0,1.5-.5,4-2.7,4-2,0-2-2-2-3.4v-6.4h-3.1v7.5c0,2.7,1.2,4.7,4.1,4.7,1.6,0,3-.7,3.9-1.9h0v1.6h2.9s0-11.9,0-11.9Zm-29,11.9h3.4l1.4-3.7h6.6l1.4,3.7h3.6l-6.5-16.1h-3.7l-6.2,16.1Zm10.4-6.2h-4.7l2.3-6.7h0l2.4,6.7Zm-29.4,6.2h3.1v-5.8c0-1.5,.5-4,2.7-4,2,0,2,2,2,3.4v6.4h3.1v-7.5c0-2.7-1.2-4.7-4.1-4.7-1.6,0-3,.7-3.8,1.9h0v-7.1h-3.1l.1,17.4h0Zm-7.9-3.5c0,2.4,1.3,3.9,3.8,3.9,.9,0,1.6-.1,2.3-.3l-.1-2.5c-.3,.2-.9,.3-1.4,.3-1.2,0-1.5-1-1.5-2v-5.6h2.7v-2.3h-2.8v-3.4l-3.1,1v2.4h-2.3v2.3h2.3l.1,6.2h0Zm-4.1-8.4h-3.1v5.8c0,1.5-.5,4-2.7,4-2,0-2-2-2-3.4v-6.4h-3.1v7.5c0,2.7,1.2,4.7,4.1,4.7,1.6,0,3-.7,3.9-1.9h0v1.6h2.9s0-11.9,0-11.9Zm-22.6,5.7c0-1.8,1-3.6,3-3.6s3,1.7,3,3.6c0,2-.6,4.1-3,4.1s-3-2.1-3-4.1m-3.2,.4c0,3.4,2.3,6.2,6.2,6.2s6.3-2.7,6.3-6.2c0-3.9-2.7-6.3-6.3-6.3-3.5-.1-6.2,2.3-6.2,6.3m-2.8-10c-1.2-.4-2.5-.6-3.9-.6-2.9,0-5.7,1.3-5.7,4.9,0,5.4,7.1,4.1,7.1,7.2,0,1.5-1.6,2.1-2.9,2.1s-2.6-.4-3.7-1l-.3,2.9c1.6,.4,2.4,.6,4.2,.6,3.3,0,6.1-1.3,6.1-4.9,0-5.4-7.1-4.2-7.1-7.1,0-1.8,1.4-2.3,2.6-2.3,1.1,0,2.3,.3,3.3,.7l.3-2.5Z"/><path class="cls-2" d="M145.6,103h3.1v-9.7h2.7v-2.3h-2.7v-1.5c0-.9,.3-1.8,1.4-1.8,.7,0,1.1,.3,1.3,.4l.3-2.6c-.6-.1-1.5-.3-2.3-.3-2.5,0-3.8,1.7-3.8,4.1v1.7h-2.3v2.3h2.3v9.7Zm-12.8-6.3c0-1.8,1-3.5,3-3.5s3,1.7,3,3.5c0,2-.6,4.1-3,4.1-2.3,.1-3-2.1-3-4.1m-3.2,.4c0,3.4,2.3,6.2,6.2,6.2s6.3-2.7,6.3-6.2c0-3.9-2.7-6.3-6.3-6.3-3.5,0-6.2,2.4-6.2,6.3m-16.3-6h-3.4l4.6,12.6c0,1.3-.8,2.1-2,2.1-.8,0-1.2-.1-1.6-.2l-.2,2.3c.7,.2,1.5,.3,2.2,.3,3.2,0,4-2.6,5-5.2l4.5-11.9h-3.2l-2.9,8.7h0l-3-8.7Zm-9.9,8.3c0,2.4,1.3,3.9,3.8,3.9,.9,0,1.6-.1,2.3-.3l-.1-2.5c-.3,.2-.9,.3-1.4,.3-1.2,0-1.5-1-1.5-2v-5.6h2.8v-2.3h-2.8v-3.4l-3.1,1v2.4h-2.3v2.3h2.3s0,6.2,0,6.2Zm-7.3-10.5h3.1v-3h-3.1v3Zm0,14.1h3.1v-11.9h-3.1v11.9Zm-3-11.8c-1-.2-1.9-.4-3.4-.4-2.4,0-4.7,1.1-4.7,3.7,0,4.3,5.4,2.7,5.4,5.1,0,1.2-1.3,1.5-2,1.5-1.1,0-2.1-.3-3.1-.8l-.2,2.6c1.1,.3,2.3,.5,3.5,.5,2.5,0,5-1.1,5-3.9,0-4.3-5.4-3.1-5.4-5,0-1,1-1.3,1.8-1.3,1.1,0,1.8,.2,2.8,.5l.3-2.5Zm-16.1,11.8h3.1v-4.4c0-1.7,0-4.9,2.5-4.9,.6,0,1.1,.1,1.4,.3v-3.1c-.3-.1-.7-.1-1-.1-1.9,0-3.1,1.9-3.3,3h0v-2.7h-2.7v11.9Zm-3.3-3.2c-1.2,.6-2.5,1.2-4,1.2-1.9,0-3.3-1.1-3.4-3h8.3c0-4.2-1.3-7.2-5.7-7.2-3.7,0-5.5,2.9-5.5,6.3,0,3.9,2.3,6.2,6.2,6.2,1.7,0,3-.3,4.1-1v-2.5Zm-7.4-3.9c.1-1.6,1-2.8,2.8-2.8,1.7,0,2.4,1.3,2.5,2.8h-5.3Zm-11.9,7.1h3.6l4.4-11.9h-3.1l-2.9,8.7h0l-3-8.7h-3.4l4.4,11.9Zm-9.3-14.1h3.1v-3h-3.1v3Zm0,14.1h3.1v-11.9h-3.1v11.9Zm-14.2,0h3.1v-5.8c0-1.5,.5-4,2.7-4,2,0,2,2,2,3.4v6.4h3.1v-7.5c0-2.7-1.2-4.7-4.1-4.7-1.6,0-2.9,.5-3.9,1.9h0v-1.6h-2.9v11.9Zm-16.4-5.8c0,4.3,2.5,6.1,6.6,6.1s6.6-1.8,6.6-6.1v-10.4h-3.2v9.3c0,2.8-.9,4.6-3.4,4.6s-3.4-1.8-3.4-4.6v-9.3h-3.2s0,10.4,0,10.4Z"/></g><g><g><path class="cls-2" d="M111.9,43c0,16.3-13.2,29.6-29.6,29.6s-29.6-13.3-29.6-29.6V0h59.2V43Z"/><path class="cls-1" d="M74.3,27.8l-5.4-3.1-5.4,3.1v15.2c0,10.4,8.4,18.8,18.8,18.8s18.8-8.4,18.8-18.8V12.4l5.4-3.1-5.4-3.1-5.4,3.1V43c0,7.4-6.1,13.4-13.5,13.4s-13.4-6-13.4-13.4v-12.1l5.5-3.1Z"/></g><path class="cls-1" d="M85,43c0,1.5-1.2,2.7-2.7,2.7s-2.7-1.2-2.7-2.7V24.7l5.4-3.1-5.4-3.1-5.4,3.1v21.4c0,4.5,3.6,8.1,8.1,8.1s8.1-3.6,8.1-8.1V18.6l5.4-3.1-5.4-3.1-5.4,3.1v27.5Z"/></g></svg>