<?xml version="1.0" encoding="UTF-8" standalone="no"?>
<svg
   xmlns:dc="http://purl.org/dc/elements/1.1/"
   xmlns:cc="http://creativecommons.org/ns#"
   xmlns:rdf="http://www.w3.org/1999/02/22-rdf-syntax-ns#"
   xmlns:svg="http://www.w3.org/2000/svg"
   xmlns="http://www.w3.org/2000/svg"
   viewBox="0 0 439 349.66666"
   height="349.66666"
   width="439"
   xml:space="preserve"
   id="svg2"
   version="1.1"><metadata
     id="metadata8"><rdf:RDF><cc:Work
         rdf:about=""><dc:format>image/svg+xml</dc:format><dc:type
           rdf:resource="http://purl.org/dc/dcmitype/StillImage" /></cc:Work></rdf:RDF></metadata><defs
     id="defs6" /><g
     transform="matrix(1.3333333,0,0,-1.3333333,0,349.66667)"
     id="g10"><g
       transform="scale(0.1)"
       id="g12"><path
         id="path14"
         style="fill:#ffffff;fill-opacity:1;fill-rule:nonzero;stroke:none"
         d="m 1485.2,1762.3 -0.17,303.42 -107.19,-61.33 V 1762.3 c 0,-148.32 120.24,-268.53 268.56,-268.53 148.23,0 269.38,120.52 269.5,268.71 l -0.76,550.43 -107.56,-61.53 V 1762.3 c 0,-89.02 -72.15,-161.17 -161.18,-161.17 -89.03,0 -161.2,72.15 -161.2,161.17 z m 0,303.51 -0.17,0.1 v -0.19 l 0.17,0.09 z m 214.76,-303.51 v 426.87 l -107.13,-61.29 V 1762.3 c 0,-29.57 23.98,-53.55 53.57,-53.55 29.58,0 53.56,23.98 53.56,53.55 z m 215.24,550.65 -0.06,0.03 v -0.07 l 0.06,0.04 z m 214.98,123.46 -107.62,-61.56 V 1762.3 c 0,-207.75 -168.4,-376.17 -376.16,-376.17 -207.77,0 -376.18,168.42 -376.18,376.17 l -0.24,303.94 107.62,62.04 107.43,-62.37 -0.06,123.84 107.61,62.04 107.38,-62.62 v 124.2 l 107.62,62.05 107.56,-62.44 -0.18,123.86 107.6,62.07 107.62,-62.5 z m 107.38,-674.11 v 860.2 H 1053.77 l 0.01,-860.02 c 0,-326.47 266.12,-591.31 592.62,-591.31 326.49,0 591.16,264.64 591.16,591.13 v 0" /><path
         id="path16"
         style="fill:#ffffff;fill-opacity:1;fill-rule:nonzero;stroke:none"
         d="m 3136.13,74.7109 c 0,36.6601 41.31,41.3011 69.14,41.3011 h 26.92 c 0,-18.5628 -2.8,-35.7307 -12.99,-49.1917 -9.75,-12.9883 -24.59,-21.3398 -43.61,-21.3398 -22.29,0 -39.46,8.8203 -39.46,29.2304 z m -31.54,103.9371 c 20.88,15.782 47.32,25.981 73.77,25.981 36.66,0 53.83,-12.981 53.83,-51.5 h -34.34 c -25.99,0 -56.6,-2.32 -80.27,-13.93 -23.67,-11.59 -40.84,-32.469 -40.84,-68.199 0,-45.4687 41.31,-71 83.53,-71 28.3,0 59.38,14.8594 73.77,41.3008 h 0.92 c 0.47,-7.4219 0.47,-23.1992 2.79,-35.71877 h 54.75 c -1.39,18.55857 -2.32,35.25777 -2.77,53.35937 -0.47,17.6289 -0.94,35.7188 -0.94,59.8476 v 30.633 c 0,70.527 -30.16,100.68 -103.01,100.68 -26.44,0 -58.92,-6.954 -83.05,-18.09 l 1.86,-53.364 z m -137.81,109.5 h 62.17 v 59.391 h -62.17 v -59.391 z m 0,-282.56597 h 62.17 V 244.539 h -62.17 V 5.58203 Z m -126.68,0 h 62.19 V 353.582 H 2840.1 V 5.58203 Z M 2627.13,74.7109 c 0,36.6601 41.29,41.3011 69.14,41.3011 h 26.91 c 0,-18.5628 -2.79,-35.7307 -13,-49.1917 -9.73,-12.9883 -24.59,-21.3398 -43.62,-21.3398 -22.26,0 -39.43,8.8203 -39.43,29.2304 z m -31.54,103.9371 c 20.87,15.782 47.32,25.981 73.77,25.981 36.66,0 53.82,-12.981 53.82,-51.5 h -34.33 c -26,0 -56.62,-2.32 -80.28,-13.93 -23.67,-11.59 -40.84,-32.469 -40.84,-68.199 0,-45.4687 41.31,-71 83.52,-71 28.32,0 59.39,14.8594 73.79,41.3008 h 0.92 c 0.47,-7.4219 0.47,-23.1992 2.79,-35.71877 h 54.75 c -1.39,18.55857 -2.33,35.25777 -2.78,53.35937 -0.47,17.6289 -0.93,35.7188 -0.93,59.8476 v 30.633 c 0,70.527 -30.16,100.68 -103.01,100.68 -26.45,0 -58.93,-6.954 -83.05,-18.09 l 1.86,-53.364 z M 2406.27,5.58203 h 62.17 V 93.2813 c 0,34.3277 0,97.4297 50.58,97.4297 11.14,0 22.27,-1.859 27.84,-5.102 v 62.641 c -6.49,1.852 -12.99,1.852 -19.03,1.852 -37.11,0 -62.63,-37.582 -65.41,-59.852 h -0.94 v 54.289 h -55.21 V 5.58203 Z M 2247.13,77.5 c 0,-47.3281 26.89,-77.5 75.62,-77.5 18.56,0 32.95,1.85938 45.94,5.58203 l -1.85,49.17967 c -6.51,-4.1797 -17.17,-6.4922 -28.3,-6.4922 -23.68,0 -29.24,19.0196 -29.24,39.4297 V 199.07 h 55.21 v 45.469 h -55.21 v 67.742 l -62.17,-19.949 v -47.793 h -45.94 V 199.07 h 45.94 V 77.5 Z m -77.95,163.789 c -19.49,4.172 -38.52,8.813 -67.75,8.813 -48.72,0 -93.73,-22.731 -93.73,-74.243 0,-86.2887 108.12,-54.277 108.12,-101.1481 0,-23.1992 -25.06,-29.2304 -40.84,-29.2304 -21.35,0 -41.76,6.0312 -61.25,15.7695 l -3.71,-51.0312 C 2032.75,4.17969 2056.89,0 2080.55,0 c 50.58,0 100.23,22.2813 100.23,77.9609 0,86.3011 -108.12,62.1801 -108.12,100.2301 0,20.411 19.96,26.438 36.66,26.438 22.73,0 36.66,-3.707 55.68,-10.199 l 4.18,46.859 z m -207.87,3.25 h -62.17 v -116.93 c 0,-30.6207 -9.75,-79.3395 -54.76,-79.3395 -39.91,0 -40.38,39.4297 -40.38,68.6715 v 127.598 h -62.16 V 93.7383 C 1741.84,39.9219 1766.43,0 1823.03,0 c 32.48,0 59.39,14.8594 78.42,38.0586 h 0.93 V 5.58203 h 58.93 V 244.539 Z m -580,-238.95697 h 67.28 l 28.31,74.23827 h 131.31 l 27.84,-74.23827 h 71.92 L 1580.83,329.449 h -73.31 L 1381.31,5.58203 Z m 208.8,125.26997 h -94.65 l 46.86,133.636 h 0.93 l 46.86,-133.636 z M 1001.3,5.58203 h 62.18 V 122.5 c 0,30.629 9.74,79.352 54.75,79.352 39.9,0 40.37,-39.442 40.37,-68.672 V 5.58203 h 62.17 V 156.371 c 0,53.828 -24.59,93.731 -81.19,93.731 -32.49,0 -59.4,-14.84 -75.18,-38.043 h -0.92 V 353.582 H 1001.3 V 5.58203 Z M 843.547,77.5 c 0,-47.3281 26.914,-77.5 75.633,-77.5 18.558,0 32.937,1.85938 45.933,5.58203 l -1.855,49.17967 c -6.496,-4.1797 -17.168,-6.4922 -28.309,-6.4922 -23.66,0 -29.226,19.0196 -29.226,39.4297 V 199.07 h 55.215 v 45.469 h -55.215 v 67.742 L 843.547,292.332 V 244.539 H 797.605 V 199.07 h 45.942 V 77.5 Z m -82.125,167.039 h -62.18 v -116.93 c 0,-30.6207 -9.738,-79.3395 -54.75,-79.3395 -39.902,0 -40.367,39.4297 -40.367,68.6715 V 244.539 H 541.949 V 93.7383 C 541.949,39.9219 566.543,0 623.148,0 c 32.481,0 59.391,14.8594 78.415,38.0586 h 0.933 V 5.58203 h 58.926 V 244.539 Z M 310.414,130.852 c 0,35.738 19.488,71 59.859,71 40.832,0 60.317,-34.34 60.317,-71 0,-39.9028 -12.524,-82.5825 -60.317,-82.5825 -47.328,0 -59.859,43.1524 -59.859,82.5825 z M 245.453,123.43 C 245.453,54.7617 291.391,0 370.273,0 c 79.34,0 125.278,54.7617 125.278,123.43 0,78.879 -54.285,126.672 -125.278,126.672 -70.527,0 -124.82,-47.793 -124.82,-126.672 z m -54.75,199.98 c -23.664,7.891 -49.648,11.602 -77.484,11.602 C 56.1445,335.012 0,308.57 0,236.191 0,129 141.98,154.52 141.98,92.8086 141.98,63.582 109.039,51.0508 84.4492,51.0508 58.9297,51.0508 33.4063,58.9414 11.1367,71 L 5.10156,12.5313 C 37.1172,4.64844 52.8945,0 88.1602,0 153.586,0 209.727,26.9219 209.727,97.9219 c 0,108.5661 -141.9848,84.9101 -141.9848,141.0471 0,35.261 28.7734,45.011 51.0428,45.011 22.735,0 45.473,-5.109 65.887,-13.929 l 6.031,53.359 v 0" /><path
         id="path18"
         style="fill:#ffffff;fill-opacity:1;fill-rule:nonzero;stroke:none"
         d="m 2911.11,562.379 h 62.17 v 193.48 h 54.28 v 45.469 h -54.28 v 29.711 c 0,18.551 6.51,36.652 27.38,36.652 13.46,0 21.33,-5.113 26.9,-8.351 l 5.12,51.5 c -12.07,2.781 -29.71,5.101 -45.47,5.101 -49.2,0 -76.1,-33.402 -76.1,-81.191 v -33.422 h -45.93 v -45.469 h 45.93 V 562.379 Z M 2656.84,687.66 c 0,35.719 19.49,70.988 59.86,70.988 40.82,0 60.31,-34.339 60.31,-70.988 0,-39.898 -12.52,-82.601 -60.31,-82.601 -47.34,0 -59.86,43.16 -59.86,82.601 z m -64.96,-7.422 c 0,-68.668 45.93,-123.429 124.82,-123.429 79.34,0 125.27,54.761 125.27,123.429 0,78.871 -54.29,126.66 -125.27,126.66 -70.53,0 -124.82,-47.789 -124.82,-126.66 z m -325.26,121.09 h -68.67 l 91.41,-251.008 c 0,-25.531 -15.32,-42.699 -40.38,-42.699 -15.31,0 -24.14,1.399 -32.01,4.18 l -4.18,-45.942 c 14.38,-4.179 29.22,-6.488 44.09,-6.488 64.96,0 79.33,51.961 99.29,104.859 l 89.55,237.098 h -63.1 l -57.54,-174.449 h -0.94 l -57.52,174.449 z M 2067.09,634.301 c 0,-47.332 26.91,-77.492 75.64,-77.492 18.56,0 32.93,1.863 45.94,5.57 l -1.85,49.191 c -6.51,-4.179 -17.17,-6.511 -28.32,-6.511 -23.66,0 -29.22,19.031 -29.22,39.453 v 111.347 h 55.21 v 45.469 h -55.21 v 67.762 l -62.19,-19.961 v -47.801 h -45.94 v -45.469 h 45.94 V 634.301 Z m -145.68,210.648 h 62.16 v 59.391 h -62.16 v -59.391 z m 0,-282.57 h 62.16 v 238.949 h -62.16 V 562.379 Z m -58.93,235.711 c -19.49,4.18 -38.52,8.808 -67.75,8.808 -48.71,0 -93.71,-22.726 -93.71,-74.238 0,-86.301 108.1,-54.281 108.1,-101.148 0,-23.192 -25.06,-29.231 -40.84,-29.231 -21.35,0 -41.76,6.039 -61.25,15.77 l -3.71,-51.031 c 22.73,-6.04 46.88,-10.211 70.53,-10.211 50.58,0 100.23,22.281 100.23,77.953 0,86.297 -108.12,62.179 -108.12,100.226 0,20.41 19.96,26.442 36.66,26.442 22.73,0 36.66,-3.711 55.68,-10.2 l 4.18,46.86 z M 1539.54,562.379 h 62.17 v 87.691 c 0,34.34 0,97.442 50.58,97.442 11.13,0 22.28,-1.852 27.85,-5.102 v 62.629 c -6.51,1.859 -13.01,1.859 -19.03,1.859 -37.13,0 -62.64,-37.578 -65.43,-59.839 h -0.92 v 54.269 h -55.22 V 562.379 Z m -65.42,64.031 c -23.21,-12.988 -49.19,-24.129 -79.35,-24.129 -38.51,0 -65.42,21.809 -68.21,60.321 h 165.19 c 0,83.519 -25.06,144.296 -113.68,144.296 -74.24,0 -110.9,-57.066 -110.9,-126.199 0,-78.418 45.94,-123.89 124.82,-123.89 33.41,0 59.39,6.5 82.13,19.019 v 50.582 z m -147.56,78.879 c 2.79,32.02 20.42,56.141 55.22,56.141 34.8,0 48.72,-25.981 50.57,-56.141 h -105.79 z m -237.57,-142.91 h 70.07 l 88.16,238.949 h -62.18 L 1127.5,627.34 h -0.92 l -59.39,173.988 h -66.82 l 88.62,-238.949 z m -187.451,282.57 h 62.176 v 59.391 h -62.176 v -59.391 z m 0,-282.57 h 62.176 V 801.328 H 901.539 V 562.379 Z m -282.574,0 h 62.18 v 116.922 c 0,30.629 9.738,79.347 54.75,79.347 39.902,0 40.367,-39.449 40.367,-68.668 V 562.379 h 62.176 V 713.18 c 0,53.82 -24.59,93.718 -81.204,93.718 -32.476,0 -58.921,-10.66 -78.41,-38.046 h -0.929 v 32.476 h -58.93 V 562.379 Z M 289.531,679.301 c 0,-86.762 49.184,-122.492 132.242,-122.492 83.055,0 132.243,35.73 132.243,122.492 V 886.25 H 489.055 V 699.262 c 0,-55.211 -17.633,-91.41 -67.282,-91.41 -49.648,0 -67.281,36.199 -67.281,91.41 V 886.25 h -64.961 v -206.949 0" /></g></g></svg>