<svg width="211" height="63" xmlns="http://www.w3.org/2000/svg">
 <style type="text/css">.st0{fill:#004E9A;}
	.st1{fill:#FFFFFF;}
	.st2{fill:none;stroke:#FFFFFF;stroke-width:0.5;stroke-miterlimit:3.864;}</style>

 <g>
  <title>background</title>
  <rect fill="none" id="canvas_background" height="65" width="213" y="-1" x="-1"/>
 </g>
 <g>
  <title>Layer 1</title>
  <g id="svg_9">
   <g id="svg_10">
    <path stroke-width="0" id="svg_11" d="m194.3,41.3c0,-1.5 1.7,-1.7 2.8,-1.7l1.1,0c0,0.8 -0.1,1.5 -0.5,2c-0.4,0.5 -1,0.9 -1.8,0.9c-0.9,0 -1.6,-0.4 -1.6,-1.2m-1.3,-4.3c0.9,-0.6 1.9,-1.1 3,-1.1c1.5,0 2.2,0.5 2.2,2.1l-1.4,0c-1.1,0 -2.3,0.1 -3.3,0.6c-1,0.5 -1.7,1.3 -1.7,2.8c0,1.9 1.7,2.9 3.4,2.9c1.2,0 2.4,-0.6 3,-1.7l0,0c0,0.3 0,1 0.1,1.5l2.2,0c-0.1,-0.8 -0.1,-1.4 -0.1,-2.2c0,-0.7 0,-1.5 0,-2.5l0,-1.3c0,-2.9 -1.2,-4.1 -4.2,-4.1c-1.1,0 -2.4,0.3 -3.4,0.7l0.2,2.3zm-5.6,-4.4l2.5,0l0,-2.4l-2.5,0l0,2.4zm0,11.5l2.5,0l0,-9.8l-2.5,0l0,9.8zm-5.2,0l2.5,0l0,-14.2l-2.5,0l0,14.2zm-8.8,-2.8c0,-1.5 1.7,-1.7 2.8,-1.7l1.1,0c0,0.8 -0.1,1.5 -0.5,2c-0.4,0.5 -1,0.9 -1.8,0.9c-0.8,0 -1.6,-0.4 -1.6,-1.2m-1.2,-4.3c0.9,-0.6 1.9,-1.1 3,-1.1c1.5,0 2.2,0.5 2.2,2.1l-1.4,0c-1.1,0 -2.3,0.1 -3.3,0.6c-1,0.5 -1.7,1.3 -1.7,2.8c0,1.9 1.7,2.9 3.4,2.9c1.2,0 2.4,-0.6 3,-1.7l0,0c0,0.3 0,1 0.1,1.5l2.2,0c-0.1,-0.8 -0.1,-1.4 -0.1,-2.2c0,-0.7 0,-1.5 0,-2.5l0,-1.3c0,-2.9 -1.2,-4.1 -4.2,-4.1c-1.1,0 -2.4,0.3 -3.4,0.7l0.2,2.3zm-7.8,7.1l2.5,0l0,-3.6c0,-1.4 0,-4 2.1,-4c0.5,0 0.9,0.1 1.1,0.2l0,-2.6c-0.3,-0.1 -0.5,-0.1 -0.8,-0.1c-1.5,0 -2.6,1.5 -2.7,2.5l0,0l0,-2.2l-2.3,0l0,9.8l0.1,0zm-6.5,-2.9c0,1.9 1.1,3.2 3.1,3.2c0.8,0 1.3,-0.1 1.9,-0.2l-0.1,-2c-0.3,0.2 -0.7,0.3 -1.2,0.3c-1,0 -1.2,-0.8 -1.2,-1.6l0,-4.6l2.3,0l0,-1.9l-2.3,0l0,-2.8l-2.5,0.8l0,2l-1.9,0l0,1.9l1.9,0l0,4.9zm-3.2,-6.7c-0.8,-0.2 -1.6,-0.4 -2.8,-0.4c-2,0 -3.8,0.9 -3.8,3c0,3.5 4.4,2.2 4.4,4.1c0,1 -1,1.2 -1.7,1.2c-0.9,0 -1.7,-0.2 -2.5,-0.6l-0.2,2.1c0.9,0.2 1.9,0.4 2.9,0.4c2.1,0 4.1,-0.9 4.1,-3.2c0,-3.5 -4.4,-2.5 -4.4,-4.1c0,-0.8 0.8,-1.1 1.5,-1.1c0.9,0 1.5,0.2 2.3,0.4l0.2,-1.8zm-8.5,-0.2l-2.5,0l0,4.8c0,1.3 -0.4,3.3 -2.2,3.3c-1.6,0 -1.7,-1.6 -1.7,-2.8l0,-5.2l-2.5,0l0,6.2c0,2.2 1,3.8 3.3,3.8c1.3,0 2.4,-0.6 3.2,-1.6l0,0l0,1.3l2.4,0l0,-9.8zm-23.8,9.8l2.8,0l1.2,-3l5.4,0l1.1,3l2.9,0l-5.2,-13.3l-3,0l-5.2,13.3zm8.6,-5.1l-3.9,0l1.9,-5.5l0,0l2,5.5zm-24.1,5.1l2.5,0l0,-4.8c0,-1.3 0.4,-3.3 2.2,-3.3c1.6,0 1.7,1.6 1.7,2.8l0,5.2l2.5,0l0,-6c0,-2.2 -1,-3.8 -3.3,-3.8c-1.3,0 -2.4,0.6 -3.1,1.6l0,0l0,-5.8l-2.5,0l0,14.1zm-6.5,-2.9c0,1.9 1.1,3.2 3.1,3.2c0.8,0 1.3,-0.1 1.9,-0.2l-0.1,-2c-0.3,0.2 -0.7,0.3 -1.2,0.3c-1,0 -1.2,-0.8 -1.2,-1.6l0,-4.6l2.3,0l0,-1.9l-2.2,0l0,-2.8l-2.5,0.8l0,2l-1.9,0l0,1.9l1.9,0l0,4.9l-0.1,0zm-3.3,-6.9l-2.5,0l0,4.8c0,1.3 -0.4,3.3 -2.2,3.3c-1.6,0 -1.7,-1.6 -1.7,-2.8l0,-5.2l-2.5,0l0,6.2c0,2.2 1,3.8 3.3,3.8c1.3,0 2.4,-0.6 3.2,-1.6l0,0l0,1.3l2.4,0l0,-9.8zm-18.5,4.7c0,-1.5 0.8,-2.9 2.5,-2.9c1.7,0 2.5,1.4 2.5,2.9c0,1.6 -0.5,3.4 -2.5,3.4c-2,0 -2.5,-1.8 -2.5,-3.4m-2.7,0.3c0,2.8 1.9,5.1 5.1,5.1c3.2,0 5.1,-2.2 5.1,-5.1c0,-3.2 -2.2,-5.2 -5.1,-5.2c-2.9,0 -5.1,2 -5.1,5.2m-2.2,-8.2c-1,-0.3 -2,-0.5 -3.2,-0.5c-2.3,0 -4.6,1.1 -4.6,4c0,4.4 5.8,3.3 5.8,5.9c0,1.2 -1.3,1.7 -2.4,1.7c-1,0 -2.1,-0.3 -3,-0.8l-0.2,2.4c1.3,0.3 2,0.5 3.4,0.5c2.7,0 5,-1.1 5,-4c0,-4.4 -5.8,-3.5 -5.8,-5.8c0,-1.4 1.2,-1.8 2.1,-1.8c0.9,0 1.9,0.2 2.7,0.6l0.2,-2.2z" class="st1"/>
    <path stroke-width="0" id="svg_12" d="m173.6,21.3l2.5,0l0,-7.9l2.2,0l0,-1.9l-2.2,0l0,-1.2c0,-0.8 0.3,-1.5 1.1,-1.5c0.6,0 0.9,0.2 1.1,0.3l0.2,-2.1c-0.5,-0.1 -1.2,-0.2 -1.9,-0.2c-2,0 -3.1,1.4 -3.1,3.3l0,1.4l-1.9,0l0,1.9l1.9,0l0,7.9l0.1,0zm-10.4,-5.1c0,-1.5 0.8,-2.9 2.5,-2.9c1.7,0 2.5,1.4 2.5,2.9c0,1.6 -0.5,3.4 -2.5,3.4c-2,0 -2.5,-1.8 -2.5,-3.4m-2.7,0.3c0,2.8 1.9,5.1 5.1,5.1c3.2,0 5.1,-2.2 5.1,-5.1c0,-3.2 -2.2,-5.2 -5.1,-5.2c-2.9,0 -5.1,2 -5.1,5.2m-13.3,-5l-2.8,0l3.7,10.3c0,1 -0.6,1.7 -1.7,1.7c-0.6,0 -1,-0.1 -1.3,-0.2l-0.2,1.9c0.6,0.2 1.2,0.3 1.8,0.3c2.7,0 3.2,-2.1 4.1,-4.3l3.7,-9.7l-2.6,0l-2.4,7.1l0,0l-2.3,-7.1zm-8.2,6.9c0,1.9 1.1,3.2 3.1,3.2c0.8,0 1.3,-0.1 1.9,-0.2l-0.1,-2c-0.3,0.2 -0.7,0.3 -1.2,0.3c-1,0 -1.2,-0.8 -1.2,-1.6l0,-4.6l2.3,0l0,-2l-2.3,0l0,-2.7l-2.5,0.8l0,2l-1.9,0l0,1.9l1.9,0l0,4.9zm-6,-8.6l2.5,0l0,-2.5l-2.5,0l0,2.5zm0,11.5l2.5,0l0,-9.8l-2.5,0l0,9.8zm-2.4,-9.6c-0.8,-0.2 -1.6,-0.4 -2.8,-0.4c-2,0 -3.8,0.9 -3.8,3c0,3.5 4.4,2.2 4.4,4.1c0,1 -1,1.2 -1.7,1.2c-0.9,0 -1.7,-0.2 -2.5,-0.6l-0.2,2.1c0.9,0.2 1.9,0.4 2.9,0.4c2.1,0 4.1,-0.9 4.1,-3.2c0,-3.5 -4.4,-2.5 -4.4,-4.1c0,-0.8 0.8,-1.1 1.5,-1.1c0.9,0 1.5,0.2 2.3,0.4l0.2,-1.8zm-13.2,9.6l2.5,0l0,-3.6c0,-1.4 0,-4 2.1,-4c0.5,0 0.9,0.1 1.1,0.2l0,-2.5c-0.3,-0.1 -0.5,-0.1 -0.8,-0.1c-1.5,0 -2.6,1.5 -2.7,2.5l0,0l0,-2.3l-2.3,0l0,9.8l0.1,0zm-2.7,-2.6c-1,0.5 -2,1 -3.2,1c-1.6,0 -2.7,-0.9 -2.8,-2.5l6.8,0c0,-3.4 -1,-5.9 -4.7,-5.9c-3,0 -4.5,2.3 -4.5,5.2c0,3.2 1.9,5.1 5.1,5.1c1.4,0 2.4,-0.3 3.4,-0.8l0,-2.1l-0.1,0zm-6,-3.2c0.1,-1.3 0.8,-2.3 2.3,-2.3c1.4,0 2,1.1 2.1,2.3l-4.4,0zm-9.7,5.8l2.9,0l3.6,-9.8l-2.5,0l-2.4,7.1l0,0l-2.4,-7.1l-2.7,0l3.5,9.8zm-7.7,-11.5l2.5,0l0,-2.5l-2.5,0l0,2.5zm0,11.5l2.5,0l0,-9.8l-2.5,0l0,9.8zm-11.6,0l2.5,0l0,-4.8c0,-1.3 0.4,-3.2 2.2,-3.2c1.6,0 1.7,1.6 1.7,2.8l0,5.2l2.5,0l0,-6.2c0,-2.2 -1,-3.8 -3.3,-3.8c-1.3,0 -2.4,0.4 -3.2,1.6l0,0l0,-1.4l-2.4,0l0,9.8zm-13.5,-4.8c0,3.6 2,5 5.4,5c3.4,0 5.4,-1.5 5.4,-5l0,-8.4l-2.7,0l0,7.7c0,2.3 -0.7,3.7 -2.8,3.7c-2,0 -2.8,-1.5 -2.8,-3.7l0,-7.7l-2.7,0l0,8.4l0.2,0z" class="st1"/>
   </g>
   <path stroke-width="0" id="svg_13" d="m49.5,37.4c0,13.4 -10.8,24.2 -24.2,24.2c-13.4,0 -24.3,-10.8 -24.3,-24.2l0,-35.2l48.5,0l0,35.2zm-30.8,-12.4l-4.4,-2.6l-4.4,2.6l0,12.4c0,8.5 6.9,15.4 15.4,15.4c8.5,0 15.4,-6.9 15.4,-15.4l0,-25.1l4.4,-2.5l-4.4,-2.6l-4.4,2.5l0,27.6c0,6.1 -5,11 -11,11c-6.1,0 -11,-4.9 -11,-11l0,-9.9l4.4,-2.4zm8.8,12.4c0,1.2 -1,2.2 -2.2,2.2c-1.2,0 -2.2,-1 -2.2,-2.2l0,-15l4.4,-2.5l-4.4,-2.6l-4.4,2.5l0,17.5c0,3.6 3,6.6 6.6,6.6c3.6,0 6.6,-3 6.6,-6.6l0,-20l4.4,-2.5l-4.4,-2.6l-4.4,2.5l0,22.7z" class="st1"/>
  </g>
 </g>
</svg>